# xmcd
#
# Track frame offsets:
#	151
#	21001
#	37032
#	60168
#	81864
#	99098
#	109389
#	128469
#	149733
#	173172
#	195202
#	215368
#	232420
#	245856
#	267109
#
# Disc length: 3772 seconds
#
# Revision: 0
# Processed by: cddbd v1.4PL0 Copyright (c) Steve Scherf et al.
# Submitted via: OrangeCD 4.1
#
DISCID=ce0eba0f
DTITLE=Di Anne Price - A Good Man Is Hard To Find
DYEAR=1900
DGENRE=
TTITLE0=Hallelujah, I Love Him So
TTITLE1=Tonight's the Night
TTITLE2=Fever
TTITLE3=I'm Just A Lucky So and So
TTITLE4=I Love Being Here With You
TTITLE5=Ain't It A Crime
TTITLE6=Why Don't You Do Right
TTITLE7=Makin' Whoopee
TTITLE8=A Good Man Is Hard To Find
TTITLE9=Never Make Your Move Too Soon
TTITLE10=Someone Else Is Steppin' In
TTITLE11=That's All Right
TTITLE12=Fishin' In the Sea of Matrimony
TTITLE13=Wild Women Don't Have the Blues
TTITLE14=Right Side of the Wrong Bed
EXTD=
EXTT0=
EXTT1=
EXTT2=
EXTT3=
EXTT4=
EXTT5=
EXTT6=
EXTT7=
EXTT8=
EXTT9=
EXTT10=
EXTT11=
EXTT12=
EXTT13=
EXTT14=
PLAYORDER=
